<svg xmlns="http://www.w3.org/2000/svg" xmlns:xlink="http://www.w3.org/1999/xlink" id="Layer_1" x="0px" y="0px" style="enable-background:new 0 0 800 600;" xml:space="preserve" viewBox="127.7 237.19 578.78 150.72"><style type="text/css">	.st0{fill:#FFFFFF;}	.st1{fill-rule:evenodd;clip-rule:evenodd;fill:#FFFFFF;}</style><g>	<g>		<g id="element-id-14517">			<path id="element-id-38271" class="st0" d="M297.74,310.05c2.99,0,5.56-1.21,7.7-3.62c2.14-2.45,3.21-5.4,3.21-8.85     c0-3.42-1.07-6.35-3.21-8.8c-2.14-2.45-4.71-3.67-7.7-3.67h-2.35v24.94H297.74z M308.65,327.51c0-3.45-1.07-6.4-3.21-8.85     c-2.14-2.42-4.71-3.62-7.7-3.62h-2.35v24.94h2.35c2.99,0,5.56-1.22,7.7-3.67C307.58,333.86,308.65,330.93,308.65,327.51z      M312.98,297.58c0,5.99-2.44,10.98-7.33,14.97c4.89,3.98,7.33,8.97,7.33,14.97c0,4.8-1.5,8.91-4.49,12.33     c-2.97,3.39-6.55,5.08-10.75,5.08h-6.67v-64.76h6.67c4.2,0,7.78,1.69,10.75,5.08C311.48,288.67,312.98,292.78,312.98,297.58     L312.98,297.58z"></path>			<path id="element-id-63381" class="st0" d="M349.42,280.17v59.82h13.47v4.94H345.1v-64.76H349.42z"></path>			<path id="element-id-66154" class="st0" d="M423.35,339.98c6.62,0,12.27-2.68,16.97-8.05c4.69-5.37,7.04-11.83,7.04-19.39     s-2.35-14.02-7.04-19.39c-4.69-5.37-10.35-8.05-16.97-8.05c-6.62,0-12.27,2.68-16.97,8.05c-4.69,5.37-7.04,11.83-7.04,19.39     c0,7.56,2.35,14.02,7.04,19.39C411.07,337.3,416.73,339.98,423.35,339.98z M423.35,280.17c7.82,0,14.5,3.17,20.02,9.51     c5.55,6.31,8.32,13.93,8.32,22.87c0,8.94-2.77,16.57-8.32,22.87c-5.52,6.34-12.19,9.51-20.02,9.51c-7.82,0-14.5-3.17-20.02-9.51     c-5.55-6.31-8.32-13.93-8.32-22.87c0-8.94,2.77-16.57,8.32-22.87C408.85,283.34,415.52,280.17,423.35,280.17z"></path>			<path id="element-id-38795" class="st0" d="M483.8,312.55c0-8.94,2.77-16.57,8.32-22.87c5.52-6.34,11.92-9.51,19.19-9.51v4.94     c-6.07,0-11.45,2.68-16.14,8.05c-4.69,5.37-7.04,11.83-7.04,19.39s2.35,14.02,7.04,19.39c4.69,5.37,10.08,8.05,16.14,8.05v4.94     c-7.28,0-13.67-3.17-19.19-9.51C486.58,329.11,483.8,321.49,483.8,312.55L483.8,312.55z"></path>			<path id="element-id-91600" class="st0" d="M561.39,280.17h4.32v17.41c0,5.99-2.44,10.98-7.33,14.97     c4.89,3.98,7.33,8.97,7.33,14.97v17.41h-4.32v-17.41c0-3.45-1.07-6.4-3.21-8.85c-2.14-2.42-4.71-3.62-7.7-3.62h-2.72v29.88h-4.32     v-64.76h4.32v29.88h2.72c2.99,0,5.56-1.21,7.7-3.62c2.14-2.45,3.21-5.4,3.21-8.85V280.17z"></path>			<path id="element-id-77583" class="st0" d="M602.16,280.17v59.82h13.47v4.94h-17.79v-64.76H602.16z"></path>			<path id="element-id-40866" class="st0" d="M647.75,280.17h4.32v64.76h-4.32V280.17z"></path>			<path id="element-id-96999" class="st0" d="M705.66,280.17l-14.95,59.82h15.77v4.94h-21.46l14.95-59.82H684.2v-4.94H705.66z"></path>		</g>	</g></g><g>	<g>		<g id="element-id-47845">			<g id="element-id-52689">				<path id="element-id-36486" class="st1" d="M127.7,312.55l76.06,75.36v-15.07l60.85-60.29l-60.85-60.29v-15.07 M203.76,274.86      l38.03,37.68l-38.03,37.68v15.07l-53.24-52.75l53.24-52.75V274.86z"></path>				<path id="element-id-22001" class="st1" d="M173.34,312.55l30.43-30.14v15.07l15.21,15.07l-15.21,15.07v15.07L173.34,312.55z"></path>			</g>		</g>	</g></g></svg>